<svg width="137" height="137" viewBox="0 0 137 137" fill="none" xmlns="http://www.w3.org/2000/svg">
<rect x="29.2491" y="0.612372" width="110.644" height="110.644" rx="55.3218" transform="rotate(15 29.2491 0.612372)" fill="#292929" stroke="#373737"/>
<path d="M38.0483 66.142V62.9602L56.912 53.8125V58.1449L42.9915 64.4943L43.1193 64.2386V64.8494L42.9915 64.608L56.912 70.9432V75.2898L38.0483 66.142ZM74.7316 45.5455L65.3566 80.375H61.5639L70.9389 45.5455H74.7316ZM98.2401 66.142L79.3764 75.2898V70.9432L93.2969 64.608L93.1548 64.8494V64.2386L93.2969 64.4943L79.3764 58.1449V53.8125L98.2401 62.9602V66.142Z" fill="black" fill-opacity="0.4"/>
<path d="M38.0483 68.142V64.9602L56.912 55.8125V60.1449L42.9915 66.4943L43.1193 66.2386V66.8494L42.9915 66.608L56.912 72.9432V77.2898L38.0483 68.142ZM74.7316 47.5455L65.3566 82.375H61.5639L70.9389 47.5455H74.7316ZM98.2401 68.142L79.3764 77.2898V72.9432L93.2969 66.608L93.1548 66.8494V66.2386L93.2969 66.4943L79.3764 60.1449V55.8125L98.2401 64.9602V68.142Z" fill="white"/>
</svg>
