<svg width="80" height="53" viewBox="0 0 80 53" fill="none" xmlns="http://www.w3.org/2000/svg">
<path d="M10.9077 31.142V27.9602L29.7713 18.8125V23.1449L15.8509 29.4943L15.9787 29.2386V29.8494L15.8509 29.608L29.7713 35.9432V40.2898L10.9077 31.142ZM47.5909 10.5455L38.2159 45.375H34.4233L43.7983 10.5455H47.5909ZM71.0994 31.142L52.2358 40.2898V35.9432L66.1562 29.608L66.0142 29.8494V29.2386L66.1562 29.4943L52.2358 23.1449V18.8125L71.0994 27.9602V31.142Z" fill="black" fill-opacity="0.4"/>
<path d="M8.90767 29.142V25.9602L27.7713 16.8125V21.1449L13.8509 27.4943L13.9787 27.2386V27.8494L13.8509 27.608L27.7713 33.9432V38.2898L8.90767 29.142ZM45.5909 8.54545L36.2159 43.375H32.4233L41.7983 8.54545H45.5909ZM69.0994 29.142L50.2358 38.2898V33.9432L64.1562 27.608L64.0142 27.8494V27.2386L64.1562 27.4943L50.2358 21.1449V16.8125L69.0994 25.9602V29.142Z" fill="white"/>
</svg>
